<svg xmlns="http://www.w3.org/2000/svg" width="1200" height="700" viewBox="0 0 1200 700"><rect width="100%" height="100%" fill="#EDEDED" /><text x="1144" y="72" text-anchor="end" font-family="'Noto Sans TC','PingFang TC','Microsoft JhengHei',sans-serif" font-size="24" font-weight="400" fill="#9CA3AF">n = 45,159 observations</text><path d="M 610 360 L 610 66 A 294 294 0 0 1 901.1347308074971 400.94592186831494 Z" fill="#F44336" /><path d="M 610 360 L 901.1347308074971 400.94592186831494 A 294 294 0 0 1 760.2206243427561 612.7246802789007 Z" fill="#FFC107" /><path d="M 610 360 L 760.2206243427561 612.7246802789007 A 294 294 0 0 1 594.728630032119 653.6031083951668 Z" fill="#3DAA57" /><path d="M 610 360 L 594.728630032119 653.6031083951668 A 294 294 0 0 1 440.0294388954893 599.887491040733 Z" fill="#FF7A00" /><path d="M 610 360 L 440.0294388954893 599.887491040733 A 294 294 0 0 1 365.69788599987083 523.561844863244 Z" fill="#4CB5BE" /><path d="M 610 360 L 365.69788599987083 523.561844863244 A 294 294 0 0 1 324.78326689835393 431.3261183496228 Z" fill="#6F9EE8" /><path d="M 610 360 L 324.78326689835393 431.3261183496228 A 294 294 0 0 1 316.0178723878419 363.2417039699544 Z" fill="#E97A75" /><path d="M 610 360 L 316.0178723878419 363.2417039699544 A 294 294 0 0 1 320.97247210107014 306.156819218834 Z" fill="#F2CC55" /><path d="M 610 360 L 320.97247210107014 306.156819218834 A 294 294 0 0 1 333.22902784946325 260.83433570611845 Z" fill="#67C587" /><path d="M 610 360 L 333.22902784946325 260.83433570611845 A 294 294 0 0 1 351.2512660713396 220.4109864985238 Z" fill="#C5CCD8" /><path d="M 610 360 L 351.2512660713396 220.4109864985238 A 294 294 0 0 1 369.97660509501463 190.221409187479 Z" fill="#F44336" /><path d="M 610 360 L 369.97660509501463 190.221409187479 A 294 294 0 0 1 386.4237111239578 169.08210389694605 Z" fill="#FFC107" /><path d="M 610 360 L 386.4237111239578 169.08210389694605 A 294 294 0 0 1 404.28758007476756 149.9561943581653 Z" fill="#3DAA57" /><path d="M 610 360 L 404.28758007476756 149.9561943581653 A 294 294 0 0 1 421.1353642310237 134.6865530957996 Z" fill="#FF7A00" /><path d="M 610 360 L 421.1353642310237 134.6865530957996 A 294 294 0 0 1 610 66 Z" fill="#4CB5BE" /><circle cx="514.9850390454382" cy="98.74120647372825" r="4" fill="#9CA3AF" /><polyline points="514.9850390454382,98.74120647372825 276,-0.044285587661818226 36,-0.044285587661818226" fill="none" stroke="#6B7280" stroke-width="2.5" /><text x="36" y="-8.044285587661818" text-anchor="start" font-family="'Noto Sans TC','PingFang TC','Microsoft JhengHei',sans-serif" font-size="22" font-weight="400" fill="#6B7280">Others (&lt;1%)</text><text x="36" y="20.95571441233818" text-anchor="start" font-family="'Noto Sans TC','PingFang TC','Microsoft JhengHei',sans-serif" font-size="21" font-weight="400" fill="#6B7280">11.1%</text><circle cx="423.30862568859095" cy="154.01376075641028" r="4" fill="#9CA3AF" /><polyline points="423.30862568859095,154.01376075641028 276,136.18649048584865 36,136.18649048584865" fill="none" stroke="#6B7280" stroke-width="2.5" /><text x="36" y="128.18649048584865" text-anchor="start" font-family="'Noto Sans TC','PingFang TC','Microsoft JhengHei',sans-serif" font-size="22" font-weight="400" fill="#6B7280">NAVER BUSINESS PLATFORM ASIA PACIFIC PTE. LTD.</text><text x="36" y="157.18649048584865" text-anchor="start" font-family="'Noto Sans TC','PingFang TC','Microsoft JhengHei',sans-serif" font-size="21" font-weight="400" fill="#6B7280">1.2%</text><circle cx="406.8356371339607" cy="170.24162294845507" r="4" fill="#9CA3AF" /><polyline points="406.8356371339607,170.24162294845507 276,196.23077607351044 36,196.23077607351044" fill="none" stroke="#6B7280" stroke-width="2.5" /><text x="36" y="188.23077607351044" text-anchor="start" font-family="'Noto Sans TC','PingFang TC','Microsoft JhengHei',sans-serif" font-size="22" font-weight="400" fill="#6B7280">Kakao Corp</text><text x="36" y="217.23077607351044" text-anchor="start" font-family="'Noto Sans TC','PingFang TC','Microsoft JhengHei',sans-serif" font-size="21" font-weight="400" fill="#6B7280">1.4%</text><circle cx="390.58736978660534" cy="189.2894329490991" r="4" fill="#9CA3AF" /><polyline points="390.58736978660534,189.2894329490991 276,256.23077607351047 36,256.23077607351047" fill="none" stroke="#6B7280" stroke-width="2.5" /><text x="36" y="248.23077607351047" text-anchor="start" font-family="'Noto Sans TC','PingFang TC','Microsoft JhengHei',sans-serif" font-size="22" font-weight="400" fill="#6B7280">NHNCLOUD</text><text x="36" y="277.23077607351047" text-anchor="start" font-family="'Noto Sans TC','PingFang TC','Microsoft JhengHei',sans-serif" font-size="21" font-weight="400" fill="#6B7280">1.5%</text><circle cx="373.754395417683" cy="213.46667848050558" r="4" fill="#9CA3AF" /><polyline points="373.754395417683,213.46667848050558 276,316.23077607351047 36,316.23077607351047" fill="none" stroke="#6B7280" stroke-width="2.5" /><text x="36" y="308.23077607351047" text-anchor="start" font-family="'Noto Sans TC','PingFang TC','Microsoft JhengHei',sans-serif" font-size="22" font-weight="400" fill="#6B7280">Fastly</text><text x="36" y="337.23077607351047" text-anchor="start" font-family="'Noto Sans TC','PingFang TC','Microsoft JhengHei',sans-serif" font-size="21" font-weight="400" fill="#6B7280">1.9%</text><circle cx="356.09181860604457" cy="246.79825345334012" r="4" fill="#9CA3AF" /><polyline points="356.09181860604457,246.79825345334012 276,376.23077607351047 36,376.23077607351047" fill="none" stroke="#6B7280" stroke-width="2.5" /><text x="36" y="368.23077607351047" text-anchor="start" font-family="'Noto Sans TC','PingFang TC','Microsoft JhengHei',sans-serif" font-size="22" font-weight="400" fill="#6B7280">SK Broadband Co Ltd</text><text x="36" y="397.23077607351047" text-anchor="start" font-family="'Noto Sans TC','PingFang TC','Microsoft JhengHei',sans-serif" font-size="21" font-weight="400" fill="#6B7280">2.4%</text><circle cx="341.6397710575051" cy="287.4273638212604" r="4" fill="#9CA3AF" /><polyline points="341.6397710575051,287.4273638212604 276,436.23077607351047 36,436.23077607351047" fill="none" stroke="#6B7280" stroke-width="2.5" /><text x="36" y="428.23077607351047" text-anchor="start" font-family="'Noto Sans TC','PingFang TC','Microsoft JhengHei',sans-serif" font-size="22" font-weight="400" fill="#6B7280">Facebook</text><text x="36" y="457.23077607351047" text-anchor="start" font-family="'Noto Sans TC','PingFang TC','Microsoft JhengHei',sans-serif" font-size="21" font-weight="400" fill="#6B7280">2.5%</text><circle cx="333.0412246150802" cy="335.9617650962986" r="4" fill="#9CA3AF" /><polyline points="333.0412246150802,335.9617650962986 276,496.23077607351047 36,496.23077607351047" fill="none" stroke="#6B7280" stroke-width="2.5" /><text x="36" y="488.23077607351047" text-anchor="start" font-family="'Noto Sans TC','PingFang TC','Microsoft JhengHei',sans-serif" font-size="22" font-weight="400" fill="#6B7280">Microsoft</text><text x="36" y="517.2307760735105" text-anchor="start" font-family="'Noto Sans TC','PingFang TC','Microsoft JhengHei',sans-serif" font-size="21" font-weight="400" fill="#6B7280">3.1%</text><circle cx="334.27564314806494" cy="395.4975920111038" r="4" fill="#9CA3AF" /><polyline points="334.27564314806494,395.4975920111038 276,556.2307760735105 36,556.2307760735105" fill="none" stroke="#6B7280" stroke-width="2.5" /><text x="36" y="548.2307760735105" text-anchor="start" font-family="'Noto Sans TC','PingFang TC','Microsoft JhengHei',sans-serif" font-size="22" font-weight="400" fill="#6B7280">Akamai</text><text x="36" y="577.2307760735105" text-anchor="start" font-family="'Noto Sans TC','PingFang TC','Microsoft JhengHei',sans-serif" font-size="21" font-weight="400" fill="#6B7280">3.7%</text><circle cx="355.8796376592078" cy="472.72462660742985" r="4" fill="#9CA3AF" /><polyline points="355.8796376592078,472.72462660742985 276,616.2307760735105 36,616.2307760735105" fill="none" stroke="#6B7280" stroke-width="2.5" /><text x="36" y="608.2307760735105" text-anchor="start" font-family="'Noto Sans TC','PingFang TC','Microsoft JhengHei',sans-serif" font-size="22" font-weight="400" fill="#6B7280">LG DACOM Corporation</text><text x="36" y="637.2307760735105" text-anchor="start" font-family="'Noto Sans TC','PingFang TC','Microsoft JhengHei',sans-serif" font-size="21" font-weight="400" fill="#6B7280">5.5%</text><circle cx="410.8398908537588" cy="553.9568274767796" r="4" fill="#9CA3AF" /><polyline points="410.8398908537588,553.9568274767796 276,676.2307760735105 36,676.2307760735105" fill="none" stroke="#6B7280" stroke-width="2.5" /><text x="36" y="668.2307760735105" text-anchor="start" font-family="'Noto Sans TC','PingFang TC','Microsoft JhengHei',sans-serif" font-size="22" font-weight="400" fill="#6B7280">Korea Telecom</text><text x="36" y="697.2307760735105" text-anchor="start" font-family="'Noto Sans TC','PingFang TC','Microsoft JhengHei',sans-serif" font-size="21" font-weight="400" fill="#6B7280">5.8%</text><circle cx="518.8118105361367" cy="622.6189522907716" r="4" fill="#9CA3AF" /><polyline points="518.8118105361367,622.6189522907716 276,736.2307760735105 36,736.2307760735105" fill="none" stroke="#6B7280" stroke-width="2.5" /><text x="36" y="728.2307760735105" text-anchor="start" font-family="'Noto Sans TC','PingFang TC','Microsoft JhengHei',sans-serif" font-size="22" font-weight="400" fill="#6B7280">Cloudflare</text><text x="36" y="757.2307760735105" text-anchor="start" font-family="'Noto Sans TC','PingFang TC','Microsoft JhengHei',sans-serif" font-size="21" font-weight="400" fill="#6B7280">9.0%</text><circle cx="819.8183561099094" cy="177.6260505463149" r="4" fill="#9CA3AF" /><polyline points="819.8183561099094,177.6260505463149 845.4795939075241,161.881536924414 1164,161.881536924414" fill="none" stroke="#6B7280" stroke-width="2.5" /><text x="1164" y="153.881536924414" text-anchor="end" font-family="'Noto Sans TC','PingFang TC','Microsoft JhengHei',sans-serif" font-size="22" font-weight="400" fill="#6B7280">Google</text><text x="1164" y="182.881536924414" text-anchor="end" font-family="'Noto Sans TC','PingFang TC','Microsoft JhengHei',sans-serif" font-size="21" font-weight="400" fill="#6B7280">27.2%</text><circle cx="841.4469529148242" cy="514.0009999527377" r="4" fill="#9CA3AF" /><polyline points="841.4469529148242,514.0009999527377 869.753414782105,527.2960503083698 1164,527.2960503083698" fill="none" stroke="#6B7280" stroke-width="2.5" /><text x="1164" y="519.2960503083698" text-anchor="end" font-family="'Noto Sans TC','PingFang TC','Microsoft JhengHei',sans-serif" font-size="22" font-weight="400" fill="#6B7280">Amazon</text><text x="1164" y="548.2960503083698" text-anchor="end" font-family="'Noto Sans TC','PingFang TC','Microsoft JhengHei',sans-serif" font-size="21" font-weight="400" fill="#6B7280">14.2%</text><circle cx="676.6655238277277" cy="629.8883249286168" r="4" fill="#9CA3AF" /><polyline points="676.6655238277277,629.8883249286168 684.8188612742844,653.1880364332457 1164,653.1880364332457" fill="none" stroke="#6B7280" stroke-width="2.5" /><text x="1164" y="645.1880364332457" text-anchor="end" font-family="'Noto Sans TC','PingFang TC','Microsoft JhengHei',sans-serif" font-size="22" font-weight="400" fill="#6B7280">NAVER Cloud Corp.</text><text x="1164" y="674.1880364332457" text-anchor="end" font-family="'Noto Sans TC','PingFang TC','Microsoft JhengHei',sans-serif" font-size="21" font-weight="400" fill="#6B7280">9.4%</text><text x="1144" y="680" text-anchor="end" font-family="'Noto Sans TC','PingFang TC','Microsoft JhengHei',sans-serif" font-size="19" font-weight="400" fill="#9CA3AF">Data snapshot: 2026-09-20</text></svg>