<svg xmlns="http://www.w3.org/2000/svg" width="1200" height="700" viewBox="0 0 1200 700"><rect width="100%" height="100%" fill="#EDEDED" /><text x="1144" y="72" text-anchor="end" font-family="'Noto Sans TC','PingFang TC','Microsoft JhengHei',sans-serif" font-size="24" font-weight="400" fill="#9CA3AF">n = 2,486 observations</text><path d="M 610 360 L 610 66 A 294 294 0 0 1 903.4365333479435 341.8065699566786 Z" fill="#F44336" /><path d="M 610 360 L 903.4365333479435 341.8065699566786 A 294 294 0 0 1 749.7565275986253 618.6582938812801 Z" fill="#FFC107" /><path d="M 610 360 L 749.7565275986253 618.6582938812801 A 294 294 0 0 1 499.81207814204214 632.5703980197127 Z" fill="#3DAA57" /><path d="M 610 360 L 499.81207814204214 632.5703980197127 A 294 294 0 0 1 386.8392613897911 551.4034606347179 Z" fill="#FF7A00" /><path d="M 610 360 L 386.8392613897911 551.4034606347179 A 294 294 0 0 1 342.2603680195487 481.45570989859846 Z" fill="#4CB5BE" /><path d="M 610 360 L 342.2603680195487 481.45570989859846 A 294 294 0 0 1 321.0582491813178 414.30160802254915 Z" fill="#6F9EE8" /><path d="M 610 360 L 321.0582491813178 414.30160802254915 A 294 294 0 0 1 316.3213210333703 346.2583290530136 Z" fill="#E97A75" /><path d="M 610 360 L 316.3213210333703 346.2583290530136 A 294 294 0 0 1 322.9980422591436 296.23577607376006 Z" fill="#F2CC55" /><path d="M 610 360 L 322.9980422591436 296.23577607376006 A 294 294 0 0 1 335.39000537929974 254.99832927796353 Z" fill="#67C587" /><path d="M 610 360 L 335.39000537929974 254.99832927796353 A 294 294 0 0 1 350.1155565713464 222.53700111019347 Z" fill="#C5CCD8" /><path d="M 610 360 L 350.1155565713464 222.53700111019347 A 294 294 0 0 1 367.81567846753705 193.3184041237288 Z" fill="#F44336" /><path d="M 610 360 L 367.81567846753705 193.3184041237288 A 294 294 0 0 1 379.7449758416489 177.19238568966242 Z" fill="#FFC107" /><path d="M 610 360 L 379.7449758416489 177.19238568966242 A 294 294 0 0 1 610 66 Z" fill="#3DAA57" /><circle cx="489.1090871251521" cy="109.66145485705576" r="4" fill="#9CA3AF" /><polyline points="489.1090871251521,109.66145485705576 276,27.653591243182802 36,27.653591243182802" fill="none" stroke="#6B7280" stroke-width="2.5" /><text x="36" y="19.653591243182802" text-anchor="start" font-family="'Noto Sans TC','PingFang TC','Microsoft JhengHei',sans-serif" font-size="22" font-weight="400" fill="#6B7280">Others (&lt;1%)</text><text x="36" y="48.6535912431828" text-anchor="start" font-family="'Noto Sans TC','PingFang TC','Microsoft JhengHei',sans-serif" font-size="21" font-weight="400" fill="#6B7280">14.3%</text><circle cx="386.5057369344705" cy="194.66907616300003" r="4" fill="#9CA3AF" /><polyline points="386.5057369344705,194.66907616300003 276,148.04949412529078 36,148.04949412529078" fill="none" stroke="#6B7280" stroke-width="2.5" /><text x="36" y="140.04949412529078" text-anchor="start" font-family="'Noto Sans TC','PingFang TC','Microsoft JhengHei',sans-serif" font-size="22" font-weight="400" fill="#6B7280">OVH SAS</text><text x="36" y="169.04949412529078" text-anchor="start" font-family="'Noto Sans TC','PingFang TC','Microsoft JhengHei',sans-serif" font-size="21" font-weight="400" fill="#6B7280">1.1%</text><circle cx="372.225723001012" cy="215.96044571851618" r="4" fill="#9CA3AF" /><polyline points="372.225723001012,215.96044571851618 276,240.39590288210795 36,240.39590288210795" fill="none" stroke="#6B7280" stroke-width="2.5" /><text x="36" y="232.39590288210795" text-anchor="start" font-family="'Noto Sans TC','PingFang TC','Microsoft JhengHei',sans-serif" font-size="22" font-weight="400" fill="#6B7280">Kakao Corp</text><text x="36" y="261.395902882108" text-anchor="start" font-family="'Noto Sans TC','PingFang TC','Microsoft JhengHei',sans-serif" font-size="21" font-weight="400" fill="#6B7280">1.9%</text><circle cx="356.83123234501534" cy="245.15412465370653" r="4" fill="#9CA3AF" /><polyline points="356.83123234501534,245.15412465370653 276,300.395902882108 36,300.395902882108" fill="none" stroke="#6B7280" stroke-width="2.5" /><text x="36" y="292.395902882108" text-anchor="start" font-family="'Noto Sans TC','PingFang TC','Microsoft JhengHei',sans-serif" font-size="22" font-weight="400" fill="#6B7280">LG DACOM Corporation</text><text x="36" y="321.395902882108" text-anchor="start" font-family="'Noto Sans TC','PingFang TC','Microsoft JhengHei',sans-serif" font-size="21" font-weight="400" fill="#6B7280">1.9%</text><circle cx="343.7611554896598" cy="279.9945147268084" r="4" fill="#9CA3AF" /><polyline points="343.7611554896598,279.9945147268084 276,360.395902882108 36,360.395902882108" fill="none" stroke="#6B7280" stroke-width="2.5" /><text x="36" y="352.395902882108" text-anchor="start" font-family="'Noto Sans TC','PingFang TC','Microsoft JhengHei',sans-serif" font-size="22" font-weight="400" fill="#6B7280">Facebook</text><text x="36" y="381.395902882108" text-anchor="start" font-family="'Noto Sans TC','PingFang TC','Microsoft JhengHei',sans-serif" font-size="21" font-weight="400" fill="#6B7280">2.3%</text><circle cx="334.4437321172752" cy="323.2203421638535" r="4" fill="#9CA3AF" /><polyline points="334.4437321172752,323.2203421638535 276,420.395902882108 36,420.395902882108" fill="none" stroke="#6B7280" stroke-width="2.5" /><text x="36" y="412.395902882108" text-anchor="start" font-family="'Noto Sans TC','PingFang TC','Microsoft JhengHei',sans-serif" font-size="22" font-weight="400" fill="#6B7280">Fastly</text><text x="36" y="441.395902882108" text-anchor="start" font-family="'Noto Sans TC','PingFang TC','Microsoft JhengHei',sans-serif" font-size="21" font-weight="400" fill="#6B7280">2.7%</text><circle cx="332.67121682623434" cy="379.30663159016785" r="4" fill="#9CA3AF" /><polyline points="332.67121682623434,379.30663159016785 276,480.395902882108 36,480.395902882108" fill="none" stroke="#6B7280" stroke-width="2.5" /><text x="36" y="472.395902882108" text-anchor="start" font-family="'Noto Sans TC','PingFang TC','Microsoft JhengHei',sans-serif" font-size="22" font-weight="400" fill="#6B7280">NAVER Cloud Corp.</text><text x="36" y="501.395902882108" text-anchor="start" font-family="'Noto Sans TC','PingFang TC','Microsoft JhengHei',sans-serif" font-size="21" font-weight="400" fill="#6B7280">3.7%</text><circle cx="344.89898686277786" cy="443.69858322348335" r="4" fill="#9CA3AF" /><polyline points="344.89898686277786,443.69858322348335 276,540.395902882108 36,540.395902882108" fill="none" stroke="#6B7280" stroke-width="2.5" /><text x="36" y="532.395902882108" text-anchor="start" font-family="'Noto Sans TC','PingFang TC','Microsoft JhengHei',sans-serif" font-size="22" font-weight="400" fill="#6B7280">Microsoft</text><text x="36" y="561.395902882108" text-anchor="start" font-family="'Noto Sans TC','PingFang TC','Microsoft JhengHei',sans-serif" font-size="21" font-weight="400" fill="#6B7280">3.8%</text><circle cx="375.5633983479719" cy="509.41044075247316" r="4" fill="#9CA3AF" /><polyline points="375.5633983479719,509.41044075247316 276,600.395902882108 36,600.395902882108" fill="none" stroke="#6B7280" stroke-width="2.5" /><text x="36" y="592.395902882108" text-anchor="start" font-family="'Noto Sans TC','PingFang TC','Microsoft JhengHei',sans-serif" font-size="22" font-weight="400" fill="#6B7280">Korea Telecom</text><text x="36" y="621.395902882108" text-anchor="start" font-family="'Noto Sans TC','PingFang TC','Microsoft JhengHei',sans-serif" font-size="21" font-weight="400" fill="#6B7280">4.5%</text><circle cx="447.791710378758" cy="585.770836863735" r="4" fill="#9CA3AF" /><polyline points="447.791710378758,585.770836863735 276,660.395902882108 36,660.395902882108" fill="none" stroke="#6B7280" stroke-width="2.5" /><text x="36" y="652.395902882108" text-anchor="start" font-family="'Noto Sans TC','PingFang TC','Microsoft JhengHei',sans-serif" font-size="22" font-weight="400" fill="#6B7280">Akamai</text><text x="36" y="681.395902882108" text-anchor="start" font-family="'Noto Sans TC','PingFang TC','Microsoft JhengHei',sans-serif" font-size="21" font-weight="400" fill="#6B7280">7.6%</text><circle cx="625.4497839342682" cy="637.5703589657664" r="4" fill="#9CA3AF" /><polyline points="625.4497839342682,637.5703589657664 276,720.395902882108 36,720.395902882108" fill="none" stroke="#6B7280" stroke-width="2.5" /><text x="36" y="712.395902882108" text-anchor="start" font-family="'Noto Sans TC','PingFang TC','Microsoft JhengHei',sans-serif" font-size="22" font-weight="400" fill="#6B7280">Cloudflare</text><text x="36" y="741.395902882108" text-anchor="start" font-family="'Noto Sans TC','PingFang TC','Microsoft JhengHei',sans-serif" font-size="21" font-weight="400" fill="#6B7280">14.0%</text><circle cx="800.3962702239473" cy="157.43331891742508" r="4" fill="#9CA3AF" /><polyline points="800.3962702239473,157.43331891742508 823.682144999538,139.94554788871358 1164,139.94554788871358" fill="none" stroke="#6B7280" stroke-width="2.5" /><text x="1164" y="131.94554788871358" text-anchor="end" font-family="'Noto Sans TC','PingFang TC','Microsoft JhengHei',sans-serif" font-size="22" font-weight="400" fill="#6B7280">Google</text><text x="1164" y="160.94554788871358" text-anchor="end" font-family="'Noto Sans TC','PingFang TC','Microsoft JhengHei',sans-serif" font-size="21" font-weight="400" fill="#6B7280">24.0%</text><circle cx="853.0628593242058" cy="494.9238541442593" r="4" fill="#9CA3AF" /><polyline points="853.0628593242058,494.9238541442593 882.7899716156554,506.57195666031043 1164,506.57195666031043" fill="none" stroke="#6B7280" stroke-width="2.5" /><text x="1164" y="498.57195666031043" text-anchor="end" font-family="'Noto Sans TC','PingFang TC','Microsoft JhengHei',sans-serif" font-size="22" font-weight="400" fill="#6B7280">Amazon</text><text x="1164" y="527.5719566603104" text-anchor="end" font-family="'Noto Sans TC','PingFang TC','Microsoft JhengHei',sans-serif" font-size="21" font-weight="400" fill="#6B7280">18.1%</text><text x="1144" y="680" text-anchor="end" font-family="'Noto Sans TC','PingFang TC','Microsoft JhengHei',sans-serif" font-size="19" font-weight="400" fill="#9CA3AF">Data snapshot: 2026-09-19</text></svg>