<svg height="700" viewBox="0 0 1200 700" width="1200" xmlns="http://www.w3.org/2000/svg"><rect fill="#ededed" height="100%" width="100%"/><text fill="#9ca3af" font-family="'Noto Sans TC','PingFang TC','Microsoft JhengHei',sans-serif" font-size="24" font-weight="400" text-anchor="end" x="1144" y="72">n = 2,486 observations</text><path d="m610 360v-294a294 294 0 0 1 293.43653335 275.80656996z" fill="#f44336"/><path d="m610 360 293.43653335-18.19343004a294 294 0 0 1 -153.68000575 276.85172392z" fill="#ffc107"/><path d="m610 360 139.7565276 258.65829388a294 294 0 0 1 -249.94444946 13.91210414z" fill="#3daa57"/><path d="m610 360-110.18792186 272.57039802a294 294 0 0 1 -112.97281675-81.16693739z" fill="#ff7a00"/><path d="m610 360-223.16073861 191.40346063a294 294 0 0 1 -44.57889337-69.94775073z" fill="#4cb5be"/><path d="m610 360-267.73963198 121.4557099a294 294 0 0 1 -21.20211884-67.15410188z" fill="#6f9ee8"/><path d="m610 360-288.94175082 54.30160802a294 294 0 0 1 -4.73692815-68.04327897z" fill="#e97a75"/><path d="m610 360-293.67867897-13.74167095a294 294 0 0 1 6.67672123-50.02255298z" fill="#f2cc55"/><path d="m610 360-287.00195774-63.76422393a294 294 0 0 1 12.39196312-41.23744679z" fill="#67c587"/><path d="m610 360-274.60999462-105.00167072a294 294 0 0 1 14.72555119-32.46132817z" fill="#c5ccd8"/><path d="m610 360-259.88444343-137.46299889a294 294 0 0 1 17.7001219-29.21859699z" fill="#f44336"/><path d="m610 360-242.18432153-166.68159588a294 294 0 0 1 11.92929737-16.12601843z" fill="#ffc107"/><path d="m610 360-230.25502416-182.80761431a294 294 0 0 1 230.25502416-111.19238569z" fill="#3daa57"/><circle cx="489.109087" cy="109.661455" fill="#9ca3af" r="4"/><path d="m489.10908713 109.66145486-213.10908713-82.00786362h-240" fill="none" stroke="#6b7280" stroke-width="2.5"/><text fill="#6b7280" font-family="'Noto Sans TC','PingFang TC','Microsoft JhengHei',sans-serif" font-size="22" font-weight="400" x="36" y="19.653591">Others (&lt;1%)</text><text fill="#6b7280" font-family="'Noto Sans TC','PingFang TC','Microsoft JhengHei',sans-serif" font-size="21" font-weight="400" x="36" y="48.653591">14.3%</text><circle cx="386.505737" cy="194.669076" fill="#9ca3af" r="4"/><path d="m386.50573693 194.66907616-110.50573693-46.61958203h-240" fill="none" stroke="#6b7280" stroke-width="2.5"/><text fill="#6b7280" font-family="'Noto Sans TC','PingFang TC','Microsoft JhengHei',sans-serif" font-size="22" font-weight="400" x="36" y="140.049494">OVH SAS</text><text fill="#6b7280" font-family="'Noto Sans TC','PingFang TC','Microsoft JhengHei',sans-serif" font-size="21" font-weight="400" x="36" y="169.049494">1.1%</text><circle cx="372.225723" cy="215.960446" fill="#9ca3af" r="4"/><path d="m372.225723 215.96044572-96.225723 24.43545716h-240" fill="none" stroke="#6b7280" stroke-width="2.5"/><text fill="#6b7280" font-family="'Noto Sans TC','PingFang TC','Microsoft JhengHei',sans-serif" font-size="22" font-weight="400" x="36" y="232.395903">Kakao Corp</text><text fill="#6b7280" font-family="'Noto Sans TC','PingFang TC','Microsoft JhengHei',sans-serif" font-size="21" font-weight="400" x="36" y="261.395903">1.9%</text><circle cx="356.831232" cy="245.154125" fill="#9ca3af" r="4"/><path d="m356.83123235 245.15412465-80.83123235 55.24177823h-240" fill="none" stroke="#6b7280" stroke-width="2.5"/><text fill="#6b7280" font-family="'Noto Sans TC','PingFang TC','Microsoft JhengHei',sans-serif" font-size="22" font-weight="400" x="36" y="292.395903">LG DACOM Corporation</text><text fill="#6b7280" font-family="'Noto Sans TC','PingFang TC','Microsoft JhengHei',sans-serif" font-size="21" font-weight="400" x="36" y="321.395903">1.9%</text><circle cx="343.761155" cy="279.994515" fill="#9ca3af" r="4"/><path d="m343.76115549 279.99451473-67.76115549 80.40138815h-240" fill="none" stroke="#6b7280" stroke-width="2.5"/><text fill="#6b7280" font-family="'Noto Sans TC','PingFang TC','Microsoft JhengHei',sans-serif" font-size="22" font-weight="400" x="36" y="352.395903">Facebook</text><text fill="#6b7280" font-family="'Noto Sans TC','PingFang TC','Microsoft JhengHei',sans-serif" font-size="21" font-weight="400" x="36" y="381.395903">2.3%</text><circle cx="334.443732" cy="323.220342" fill="#9ca3af" r="4"/><path d="m334.44373212 323.22034216-58.44373212 97.17556072h-240" fill="none" stroke="#6b7280" stroke-width="2.5"/><text fill="#6b7280" font-family="'Noto Sans TC','PingFang TC','Microsoft JhengHei',sans-serif" font-size="22" font-weight="400" x="36" y="412.395903">Fastly</text><text fill="#6b7280" font-family="'Noto Sans TC','PingFang TC','Microsoft JhengHei',sans-serif" font-size="21" font-weight="400" x="36" y="441.395903">2.7%</text><circle cx="332.671217" cy="379.306632" fill="#9ca3af" r="4"/><path d="m332.67121683 379.30663159-56.67121683 101.08927129h-240" fill="none" stroke="#6b7280" stroke-width="2.5"/><text fill="#6b7280" font-family="'Noto Sans TC','PingFang TC','Microsoft JhengHei',sans-serif" font-size="22" font-weight="400" x="36" y="472.395903">NAVER Cloud Corp.</text><text fill="#6b7280" font-family="'Noto Sans TC','PingFang TC','Microsoft JhengHei',sans-serif" font-size="21" font-weight="400" x="36" y="501.395903">3.7%</text><circle cx="344.898987" cy="443.698583" fill="#9ca3af" r="4"/><path d="m344.89898686 443.69858322-68.89898686 96.69731966h-240" fill="none" stroke="#6b7280" stroke-width="2.5"/><text fill="#6b7280" font-family="'Noto Sans TC','PingFang TC','Microsoft JhengHei',sans-serif" font-size="22" font-weight="400" x="36" y="532.395903">Microsoft</text><text fill="#6b7280" font-family="'Noto Sans TC','PingFang TC','Microsoft JhengHei',sans-serif" font-size="21" font-weight="400" x="36" y="561.395903">3.8%</text><circle cx="375.563398" cy="509.410441" fill="#9ca3af" r="4"/><path d="m375.56339835 509.41044075-99.56339835 90.98546213h-240" fill="none" stroke="#6b7280" stroke-width="2.5"/><text fill="#6b7280" font-family="'Noto Sans TC','PingFang TC','Microsoft JhengHei',sans-serif" font-size="22" font-weight="400" x="36" y="592.395903">Korea Telecom</text><text fill="#6b7280" font-family="'Noto Sans TC','PingFang TC','Microsoft JhengHei',sans-serif" font-size="21" font-weight="400" x="36" y="621.395903">4.5%</text><circle cx="447.79171" cy="585.770837" fill="#9ca3af" r="4"/><path d="m447.79171038 585.77083686-171.79171038 74.62506602h-240" fill="none" stroke="#6b7280" stroke-width="2.5"/><text fill="#6b7280" font-family="'Noto Sans TC','PingFang TC','Microsoft JhengHei',sans-serif" font-size="22" font-weight="400" x="36" y="652.395903">Akamai</text><text fill="#6b7280" font-family="'Noto Sans TC','PingFang TC','Microsoft JhengHei',sans-serif" font-size="21" font-weight="400" x="36" y="681.395903">7.6%</text><circle cx="625.449784" cy="637.570359" fill="#9ca3af" r="4"/><path d="m625.44978393 637.57035897-349.44978393 82.82554391h-240" fill="none" stroke="#6b7280" stroke-width="2.5"/><text fill="#6b7280" font-family="'Noto Sans TC','PingFang TC','Microsoft JhengHei',sans-serif" font-size="22" font-weight="400" x="36" y="712.395903">Cloudflare</text><text fill="#6b7280" font-family="'Noto Sans TC','PingFang TC','Microsoft JhengHei',sans-serif" font-size="21" font-weight="400" x="36" y="741.395903">14.0%</text><circle cx="800.39627" cy="157.433319" fill="#9ca3af" r="4"/><path d="m800.39627022 157.43331892 23.28587478-17.48777103h340.317855" fill="none" stroke="#6b7280" stroke-width="2.5"/><text fill="#6b7280" font-family="'Noto Sans TC','PingFang TC','Microsoft JhengHei',sans-serif" font-size="22" font-weight="400" text-anchor="end" x="1164" y="131.945548">Google</text><text fill="#6b7280" font-family="'Noto Sans TC','PingFang TC','Microsoft JhengHei',sans-serif" font-size="21" font-weight="400" text-anchor="end" x="1164" y="160.945548">24.0%</text><circle cx="853.062859" cy="494.923854" fill="#9ca3af" r="4"/><path d="m853.06285932 494.92385414 29.7271123 11.64810252h281.21002838" fill="none" stroke="#6b7280" stroke-width="2.5"/><g font-family="'Noto Sans TC','PingFang TC','Microsoft JhengHei',sans-serif" font-weight="400" text-anchor="end"><text fill="#6b7280" font-size="22" x="1164" y="498.571957">Amazon</text><text fill="#6b7280" font-size="21" x="1164" y="527.571957">18.1%</text><text fill="#9ca3af" font-size="19" x="1144" y="680">Data snapshot: 2026-09-19</text></g></svg>